<svg width="23" height="21" viewBox="0 0 23 21" fill="none" xmlns="http://www.w3.org/2000/svg">
<g id="Fb">
<path id="Vector" fill-rule="evenodd" clip-rule="evenodd" d="M22.0475 10.4854C22.0475 4.74033 17.1799 0.0820312 11.1766 0.0820312C5.17332 0.0820312 0.305664 4.74033 0.305664 10.4854C0.305664 15.6778 4.28035 19.9818 9.47801 20.7629V13.4936H6.71709V10.4854H9.47801V8.19342C9.47801 5.58654 11.1014 4.14539 13.5842 4.14539C14.7737 4.14539 16.018 4.34881 16.018 4.34881V6.90925H14.6466C13.2969 6.90925 12.8747 7.71087 12.8747 8.53478V10.4854H15.8894L15.408 13.4936H12.8752V20.7639C18.0728 19.9832 22.0475 15.6792 22.0475 10.4854V10.4854Z" fill="white"/>
</g>
</svg>
