<svg width="23" height="21" viewBox="0 0 23 21" fill="none" xmlns="http://www.w3.org/2000/svg">
<g id="Insta">
<path id="Vector" d="M15.6728 1.75327C16.8731 1.7567 18.0232 2.21453 18.8719 3.02677C19.7207 3.83901 20.1991 4.93965 20.2027 6.08833V14.7575C20.1991 15.9062 19.7207 17.0068 18.8719 17.8191C18.0232 18.6313 16.8731 19.0891 15.6728 19.0926H6.614C5.4137 19.0891 4.26359 18.6313 3.41485 17.8191C2.56611 17.0068 2.08771 15.9062 2.08412 14.7575V6.08833C2.08771 4.93965 2.56611 3.83901 3.41485 3.02677C4.26359 2.21453 5.4137 1.7567 6.614 1.75327H15.6728V1.75327ZM15.6728 0.0195312H6.614C3.12608 0.0195313 0.272461 2.75042 0.272461 6.08833V14.7575C0.272461 18.0954 3.12608 20.8263 6.614 20.8263H15.6728C19.1607 20.8263 22.0143 18.0954 22.0143 14.7575V6.08833C22.0143 2.75042 19.1607 0.0195312 15.6728 0.0195312V0.0195312Z" fill="white"/>
<path id="Vector_2" d="M17.0317 6.08815C16.763 6.08815 16.5003 6.01188 16.2768 5.86899C16.0533 5.7261 15.8792 5.523 15.7763 5.28538C15.6735 5.04776 15.6465 4.78629 15.699 4.53403C15.7514 4.28177 15.8808 4.05006 16.0709 3.86819C16.2609 3.68632 16.503 3.56247 16.7666 3.51229C17.0302 3.46212 17.3034 3.48787 17.5517 3.58629C17.8 3.68472 18.0123 3.8514 18.1616 4.06525C18.3109 4.27911 18.3906 4.53053 18.3906 4.78773C18.391 4.95861 18.3561 5.12787 18.2879 5.28581C18.2198 5.44375 18.1197 5.58726 17.9935 5.70809C17.8672 5.82891 17.7172 5.92469 17.5522 5.98991C17.3872 6.05513 17.2103 6.08852 17.0317 6.08815V6.08815ZM11.1435 6.95479C11.8602 6.95479 12.5608 7.15818 13.1568 7.53925C13.7527 7.92031 14.2172 8.46193 14.4914 9.09561C14.7657 9.7293 14.8375 10.4266 14.6976 11.0993C14.5578 11.772 14.2127 12.39 13.7059 12.875C13.1991 13.36 12.5534 13.6902 11.8504 13.8241C11.1475 13.9579 10.4189 13.8892 9.7567 13.6267C9.09454 13.3642 8.52858 12.9197 8.13039 12.3494C7.7322 11.7791 7.51967 11.1086 7.51967 10.4227C7.5207 9.50329 7.90282 8.62177 8.58219 7.97162C9.26157 7.32146 10.1827 6.95577 11.1435 6.95479V6.95479ZM11.1435 5.22105C10.0684 5.22105 9.01755 5.52612 8.12369 6.09769C7.22983 6.66926 6.53316 7.48165 6.12176 8.43214C5.71036 9.38262 5.60272 10.4285 5.81245 11.4375C6.02218 12.4466 6.53986 13.3734 7.30002 14.1009C8.06018 14.8284 9.02869 15.3238 10.0831 15.5245C11.1374 15.7252 12.2303 15.6222 13.2235 15.2285C14.2167 14.8348 15.0656 14.1681 15.6629 13.3126C16.2602 12.4572 16.5789 11.4515 16.5789 10.4227C16.5789 9.04317 16.0063 7.7201 14.9869 6.74459C13.9676 5.76908 12.585 5.22105 11.1435 5.22105V5.22105Z" fill="white"/>
</g>
</svg>
