<svg width="24" height="23" viewBox="0 0 24 23" fill="none" xmlns="http://www.w3.org/2000/svg">
<g id="Pintrest">
<path id="Vector" d="M11.9717 0.448242C5.8718 0.448242 0.925781 5.3614 0.925781 11.4208C0.925781 15.9127 3.64782 19.7727 7.53856 21.4724C7.50897 20.7083 7.53363 19.7874 7.73088 18.9546C7.94292 18.0631 9.15107 12.9736 9.15107 12.9736C9.15107 12.9736 8.79602 12.2731 8.79602 11.2396C8.79602 9.61326 9.74282 8.39844 10.9263 8.39844C11.9323 8.39844 12.4155 9.14791 12.4155 10.0443C12.4155 11.0485 11.7696 12.5474 11.4392 13.9386C11.163 15.1044 12.026 16.0498 13.1848 16.0498C15.2757 16.0498 16.686 13.3802 16.686 10.2158C16.686 7.81063 15.0538 6.01289 12.0901 6.01289C8.74178 6.01289 6.65094 8.49641 6.65094 11.2689C6.65094 12.2241 6.93695 12.9001 7.38076 13.4194C7.58294 13.6594 7.61253 13.7574 7.53856 14.0317C7.48431 14.2325 7.36597 14.7175 7.31172 14.9134C7.23775 15.1926 7.01092 15.2906 6.75942 15.1877C5.21595 14.5607 4.49599 12.8854 4.49599 10.9946C4.49599 7.87921 7.14406 4.14168 12.3909 4.14168C16.6071 4.14168 19.3834 7.17383 19.3834 10.4264C19.3834 14.7322 16.972 17.9455 13.4215 17.9455C12.2282 17.9455 11.1088 17.3038 10.7241 16.5789C10.7241 16.5789 10.0831 19.1065 9.945 19.5963C9.71323 20.4438 9.25463 21.2863 8.83547 21.9476C9.85223 22.2455 10.9067 22.3973 11.9668 22.3982C18.0667 22.3982 23.0128 17.4851 23.0128 11.4257C23.0128 5.3663 18.0717 0.448242 11.9717 0.448242Z" fill="white"/>
</g>
</svg>
