<svg width="24" height="19" viewBox="0 0 24 19" fill="none" xmlns="http://www.w3.org/2000/svg">
<g id="Twiter">
<path id="Vector" d="M23.6347 2.35756C22.7609 2.73489 21.8363 2.98348 20.8903 3.09548C21.8845 2.5169 22.6322 1.59773 22.9931 0.51035C22.0531 1.0566 21.0264 1.43987 19.957 1.64375C19.5067 1.17473 18.9651 0.801613 18.3652 0.547075C17.7652 0.292536 17.1195 0.161896 16.4672 0.163094C13.8261 0.163094 11.6888 2.25627 11.6888 4.83658C11.6869 5.19549 11.7283 5.55333 11.8121 5.90246C9.91824 5.81423 8.0638 5.33411 6.36738 4.49282C4.67096 3.65153 3.16992 2.4676 1.96029 1.01676C1.53593 1.72773 1.3115 2.53892 1.31046 3.36556C1.31046 4.98609 2.16121 6.41852 3.44582 7.25772C2.68473 7.23977 1.93923 7.03958 1.27261 6.67414V6.73202C1.27261 8.99882 2.92266 10.8846 5.10655 11.3139C4.69588 11.4227 4.27268 11.4778 3.84766 11.4778C3.54608 11.4784 3.24518 11.4493 2.94935 11.391C3.55647 13.2479 5.32349 14.5983 7.41663 14.6369C5.7158 15.9396 3.62763 16.6436 1.48032 16.6385C1.09917 16.6379 0.718368 16.6153 0.339844 16.5709C2.52431 17.9572 5.06358 18.6904 7.6554 18.6834C16.457 18.6834 21.2654 11.5598 21.2654 5.38158C21.2654 5.17901 21.2601 4.97644 21.2504 4.7787C22.1837 4.11894 22.9911 3.29906 23.6347 2.35756V2.35756Z" fill="white"/>
</g>
</svg>
